<?xml version="1.0" encoding="utf-8"?><svg version="1.1" id="Layer_1" xmlns="http://www.w3.org/2000/svg" xmlns:xlink="http://www.w3.org/1999/xlink" x="0px" y="0px" viewBox="0 0 120.51 122.88" style="enable-background:new 0 0 120.51 122.88" xml:space="preserve"><g><path d="M27.68,22.4c0.89-0.26,1.83,0.26,2.09,1.15c0.26,0.89-0.26,1.83-1.15,2.09c-3.86,1.12-6.91,2.81-9.06,5.15 c-2.11,2.29-3.37,5.26-3.7,8.97c-0.08,0.93-0.9,1.62-1.83,1.54c-0.93-0.08-1.62-0.9-1.54-1.83c0.39-4.49,1.96-8.12,4.58-10.97 C19.65,25.71,23.23,23.7,27.68,22.4L27.68,22.4z M29.83,103.62h57.45l6.34-39.69h0c0.1-0.62,0.54-1.16,1.18-1.35 c14.35-4.37,20.88-12.57,22.11-20.94c0.6-4.05-0.03-8.15-1.6-11.9c-1.58-3.77-4.11-7.17-7.3-9.76c-6.59-5.37-16.04-7.32-25.83-2.11 l-0.01,0.01c-0.81,0.46-1.84,0.18-2.3-0.63c-2.58-4.52-5.69-7.86-9.06-10.12c-3.7-2.49-7.74-3.68-11.76-3.74 C55,3.32,50.96,4.42,47.27,6.53c-3.64,2.08-6.94,5.14-9.56,9.05l0,0c-0.4,0.59-1.15,0.89-1.87,0.68 C25.28,13.2,15.82,16.8,9.88,23.23c-2.38,2.57-4.2,5.6-5.3,8.84c-1.09,3.21-1.47,6.62-0.98,9.99c1.13,7.79,6.96,15.4,19.44,19.83v0 c0.58,0.2,1.02,0.71,1.11,1.36L29.83,103.62L29.83,103.62z M20.93,64.72C7.75,59.75,1.51,51.28,0.24,42.54 c-0.57-3.9-0.13-7.85,1.13-11.55c1.25-3.67,3.32-7.12,6.03-10.05c6.52-7.05,16.74-11.1,28.2-8.24c2.8-3.88,6.24-6.96,10-9.11 c4.2-2.4,8.83-3.65,13.48-3.59c4.66,0.06,9.33,1.44,13.6,4.31c3.44,2.31,6.61,5.57,9.3,9.88c10.67-5.06,20.91-2.74,28.16,3.16 c3.63,2.95,6.5,6.81,8.29,11.07c1.8,4.29,2.52,9.02,1.83,13.7c-1.38,9.36-8.34,18.46-23.46,23.36l-8.94,55.97 c-0.13,0.83-0.85,1.42-1.67,1.42v0.01H30.61c-0.89,0-1.63-0.69-1.69-1.57L20.93,64.72L20.93,64.72z M32.89,70.78 c-0.14-0.92,0.5-1.78,1.43-1.92c0.92-0.13,1.78,0.5,1.92,1.43l3.48,23.17c0.14,0.92-0.5,1.78-1.43,1.92 c-0.92,0.14-1.78-0.5-1.92-1.43L32.89,70.78L32.89,70.78z"/></g></svg>