<?xml version="1.0" encoding="utf-8"?><svg version="1.1" id="Layer_1" xmlns="http://www.w3.org/2000/svg" xmlns:xlink="http://www.w3.org/1999/xlink" x="0px" y="0px" viewBox="0 0 122.88 111.69" style="enable-background:new 0 0 122.88 111.69" xml:space="preserve"><g><path d="M25.66,19.3c-0.4,0.4-0.93,0.6-1.45,0.6c-0.53,0-1.05-0.2-1.45-0.6c-0.4-0.4-0.6-0.93-0.6-1.45c0-0.53,0.2-1.05,0.6-1.45 c0.73-0.73,0.94-1.39,0.86-2.02c-0.08-0.69-0.47-1.43-0.9-2.22c-0.74-1.39-1.54-2.87-1.79-4.67c-0.26-1.82,0.04-3.91,1.51-6.45 L22.45,1c0.28-0.47,0.73-0.79,1.22-0.93c0.5-0.14,1.06-0.08,1.55,0.2c0.49,0.28,0.82,0.74,0.96,1.24c0.14,0.5,0.08,1.06-0.2,1.55 c-0.9,1.57-1.07,2.87-0.9,4.01c0.18,1.15,0.73,2.18,1.25,3.14c0.77,1.43,1.48,2.76,1.57,4.23C28,15.95,27.45,17.51,25.66,19.3 L25.66,19.3z M14.09,42.76h94.51c0.38,0,0.75,0.08,1.09,0.22c0.33,0.14,0.62,0.33,0.88,0.57c0.02,0.01,0.04,0.03,0.06,0.05 c0.52,0.52,0.84,1.23,0.84,2.02v6.37h9.36c0.57,0,1.08,0.23,1.45,0.6l0,0c0.37,0.37,0.6,0.89,0.6,1.45c0,0.57-0.23,1.08-0.6,1.45 l-0.03,0.03c-0.37,0.35-0.87,0.57-1.42,0.57h-9.36v42.1c0,1.82-0.37,3.56-1.03,5.15c-0.69,1.65-1.69,3.14-2.93,4.38 c-1.24,1.24-2.73,2.25-4.38,2.93c-1.59,0.66-3.33,1.03-5.15,1.03H24.73c-1.82,0-3.56-0.37-5.15-1.03 c-1.65-0.69-3.14-1.69-4.38-2.94c-1.24-1.24-2.25-2.73-2.94-4.38c-0.66-1.59-1.03-3.33-1.03-5.15V56.11H2.06 c-0.57,0-1.08-0.23-1.45-0.6C0.23,55.13,0,54.62,0,54.05c0-0.57,0.23-1.08,0.6-1.45l0,0c0.37-0.37,0.89-0.6,1.45-0.6h9.18v-6.37 c0-0.38,0.08-0.75,0.22-1.09c0.15-0.35,0.36-0.67,0.62-0.93C12.59,43.09,13.31,42.76,14.09,42.76L14.09,42.76z M107.35,46.88h-92 v51.32c0,1.27,0.25,2.47,0.71,3.58c0.48,1.15,1.18,2.18,2.05,3.05c0.87,0.87,1.9,1.57,3.05,2.05c1.1,0.46,2.31,0.71,3.58,0.71 h73.25c1.26,0,2.47-0.25,3.57-0.71c1.14-0.48,2.18-1.18,3.05-2.04c0.87-0.87,1.57-1.9,2.04-3.05c0.46-1.1,0.71-2.31,0.71-3.57 V46.88L107.35,46.88z M20.06,53.85c0-0.57,0.23-1.08,0.6-1.45c0.37-0.37,0.89-0.6,1.45-0.6c0.57,0,1.08,0.23,1.45,0.6 c0.37,0.37,0.6,0.89,0.6,1.45v27.09c0,0.57-0.23,1.08-0.6,1.45c-0.37,0.37-0.89,0.6-1.45,0.6c-0.57,0-1.08-0.23-1.45-0.6 l-0.03-0.03c-0.35-0.37-0.57-0.87-0.57-1.42V53.85L20.06,53.85z M40.3,25.44c-3.54,0.51-6.72,1.16-9.54,1.93 c-2.83,0.78-5.32,1.69-7.46,2.73c-1.5,0.73-2.83,1.52-3.98,2.37c-0.81,0.59-1.53,1.22-2.17,1.87h88.43 c-0.59-0.62-1.27-1.21-2.03-1.77c-1.11-0.81-2.4-1.56-3.86-2.24c-2.08-0.98-4.5-1.82-7.21-2.56c-2.73-0.74-5.75-1.35-9.01-1.86 c-1.48-0.23-2.98-0.44-4.49-0.63l-0.02,0c-1.49-0.19-2.99-0.35-4.51-0.5c-1.49-0.14-3-0.27-4.54-0.37 c-1.52-0.1-3.03-0.18-4.53-0.24c-0.57-0.02-1.07-0.27-1.43-0.65c-0.36-0.38-0.57-0.9-0.55-1.47l0-0.01 c0.01-0.33,0.1-0.64,0.25-0.91c0.15-0.28,0.37-0.51,0.63-0.7c0.32-0.24,0.62-0.51,0.88-0.82c0.26-0.3,0.48-0.64,0.66-0.99 c0.18-0.35,0.32-0.72,0.41-1.13c0.09-0.39,0.14-0.79,0.14-1.21c0-0.7-0.14-1.36-0.39-1.96c-0.26-0.62-0.64-1.19-1.11-1.66 c-0.47-0.47-1.04-0.86-1.66-1.11c-0.6-0.25-1.26-0.39-1.96-0.39c-0.7,0-1.36,0.14-1.96,0.39c-0.63,0.26-1.19,0.64-1.66,1.12 c-0.47,0.47-0.86,1.04-1.11,1.66l0,0c-0.25,0.6-0.39,1.26-0.39,1.96c0,0.41,0.05,0.81,0.13,1.19c0.09,0.39,0.23,0.77,0.4,1.11 c0.18,0.35,0.4,0.69,0.65,0.99c0.26,0.31,0.55,0.59,0.87,0.82c0.45,0.34,0.73,0.83,0.8,1.35c0.07,0.52-0.05,1.07-0.39,1.52 c-0.2,0.26-0.44,0.46-0.71,0.6c-0.26,0.13-0.55,0.21-0.84,0.22l-0.06,0l-0.04,0c-1.37,0.03-2.77,0.08-4.18,0.15 c-1.39,0.07-2.8,0.16-4.25,0.28c-1.4,0.11-2.79,0.24-4.15,0.4C42.99,25.07,41.64,25.24,40.3,25.44L40.3,25.44z M21.51,26.4 c2.34-1.13,5.03-2.12,8.08-2.96c3.03-0.84,6.41-1.53,10.13-2.07c1.39-0.2,2.79-0.38,4.2-0.54c1.43-0.16,2.84-0.3,4.26-0.41 c0.87-0.07,1.78-0.13,2.71-0.19c0.64-0.04,1.3-0.07,1.96-0.1c-0.25-0.55-0.45-1.13-0.59-1.72c-0.16-0.68-0.25-1.39-0.25-2.12 c0-1.25,0.25-2.44,0.7-3.53c0.47-1.13,1.16-2.15,2.01-3c0.85-0.85,1.87-1.54,3-2c1.09-0.45,2.28-0.7,3.53-0.7s2.44,0.25,3.53,0.7 c1.13,0.47,2.15,1.16,3,2c0.85,0.85,1.54,1.87,2.01,3c0.45,1.09,0.7,2.28,0.7,3.53c0,0.74-0.09,1.46-0.26,2.16 c-0.15,0.63-0.37,1.24-0.65,1.82c0.76,0.05,1.5,0.1,2.22,0.16c0.97,0.07,1.98,0.16,3.02,0.26c1.55,0.15,3.09,0.32,4.64,0.52 c1.55,0.19,3.09,0.41,4.62,0.65c3.47,0.54,6.66,1.2,9.54,1.98c2.9,0.79,5.51,1.71,7.79,2.78c2.38,1.11,4.41,2.39,6.05,3.85 c1.66,1.47,2.92,3.12,3.77,4.97c0.07,0.14,0.13,0.29,0.17,0.46c0.04,0.16,0.06,0.32,0.06,0.49c0,0.57-0.23,1.08-0.6,1.45 l-0.03,0.03c-0.37,0.35-0.87,0.57-1.42,0.57H13.09c-0.04,0-0.07,0-0.1-0.01c-0.13-0.01-0.27-0.03-0.39-0.06 c-0.14-0.04-0.28-0.09-0.42-0.16c-0.03-0.01-0.06-0.03-0.09-0.05c-0.47-0.27-0.8-0.7-0.95-1.19c-0.15-0.49-0.12-1.03,0.13-1.51 c0.01-0.03,0.03-0.06,0.05-0.09c0.98-1.81,2.31-3.47,4.01-4.97C17.02,28.92,19.08,27.58,21.51,26.4L21.51,26.4z M81.61,16.39 c0.4,0.4,0.6,0.93,0.6,1.45c0,0.53-0.2,1.05-0.6,1.45c-0.4,0.4-0.93,0.6-1.45,0.6c-0.53,0-1.05-0.2-1.45-0.6 c-1.79-1.79-2.34-3.35-2.25-4.85c0.09-1.47,0.81-2.8,1.57-4.23c1-1.88,2.15-4.02,0.35-7.15l-0.02-0.04 c-0.27-0.48-0.32-1.03-0.18-1.52c0.14-0.51,0.47-0.96,0.96-1.24c0.49-0.28,1.05-0.34,1.55-0.2c0.51,0.14,0.96,0.47,1.24,0.96 c1.47,2.54,1.77,4.63,1.51,6.44c-0.26,1.8-1.05,3.29-1.79,4.67l0,0C80.85,13.65,80.16,14.94,81.61,16.39L81.61,16.39z M97.11,16.39 c0.4,0.4,0.6,0.93,0.6,1.45c0,0.53-0.2,1.05-0.6,1.45c-0.4,0.4-0.93,0.6-1.45,0.6c-0.53,0-1.05-0.2-1.45-0.6 c-1.79-1.79-2.34-3.35-2.25-4.85c0.09-1.47,0.81-2.8,1.57-4.23c0.51-0.96,1.07-1.99,1.25-3.14c0.18-1.14,0.01-2.44-0.9-4.01 c-0.28-0.49-0.34-1.05-0.2-1.55c0.14-0.51,0.47-0.96,0.96-1.24c0.49-0.28,1.05-0.34,1.55-0.2c0.5,0.14,0.96,0.47,1.24,0.96 c1.47,2.54,1.77,4.63,1.51,6.44c-0.26,1.8-1.05,3.29-1.79,4.67c-0.42,0.79-0.82,1.53-0.9,2.22C96.17,15.01,96.38,15.66,97.11,16.39 L97.11,16.39z M41.16,19.3c-0.4,0.4-0.93,0.6-1.45,0.6c-0.53,0-1.05-0.2-1.45-0.6c-0.4-0.4-0.6-0.93-0.6-1.45 c0-0.53,0.2-1.05,0.6-1.45c1.46-1.46,0.77-2.75-0.04-4.25c-0.74-1.39-1.54-2.87-1.79-4.68c-0.26-1.82,0.04-3.91,1.51-6.45 c0.28-0.49,0.74-0.82,1.25-0.95c0.51-0.13,1.06-0.08,1.55,0.21c0.49,0.28,0.82,0.74,0.95,1.25c0.13,0.51,0.08,1.06-0.21,1.55 c-1.8,3.12-0.65,5.27,0.35,7.14l0,0c0.77,1.43,1.48,2.76,1.57,4.23C43.5,15.95,42.94,17.51,41.16,19.3L41.16,19.3z"/></g></svg>